<svg xmlns="http://www.w3.org/2000/svg" xmlns:xlink="http://www.w3.org/1999/xlink" version="1.1" x="0px" y="0px" viewBox="0 0 504 610" style="enable-background:new 0 0 504 488;" xml:space="preserve">
  <g fill="#FFBC5E"> <!-- Golden color -->
    <path d="M476.337,228.35H261.625c-15.254,0-27.663,12.366-27.663,27.566v78.213c-21.056-20.998-42.742-31.753-58.597-37.225l0.007-24.291c24.303-9.028,43.447-28.549,51.511-42.129c2.147-3.617,4.171-8.02,6.04-13.092c11.004-0.255,21.314-8.37,25.812-20.728c3.735-10.263,2.468-21.106-2.504-28.9c9.345-25.166,11.587-51.533,6.436-76.395c-5.278-25.471-17.787-47.075-36.174-62.475C200.51,7.133,157.305-7.25,119.352,9.667c-15.183,6.768-28.51,18.202-38.611,33.109c-11.342,4.371-26.7,12.856-37.902,28.83c-18.382,26.208-18.761,63.839-1.166,96.497c-4.796,7.768-5.976,18.445-2.295,28.561c4.497,12.358,14.807,20.474,25.812,20.728c1.869,5.073,3.893,9.475,6.04,13.092c8.064,13.58,27.207,33.1,51.51,42.128l-0.007,24.292c-24.88,8.6-67.953,31.686-96.752,92.172c-12.791,26.863-21.521,58.635-25.95,94.433c-0.141,1.138,0.214,2.281,0.973,3.14C1.763,487.508,2.853,488,4,488h477.283c2.209,0,4-1.791,4-4v-23.301c0-2.209-1.791-4-4-4h-61.51v-33.942h56.563c15.254,0,27.663-12.366,27.663-27.566V255.916C504,240.716,491.591,228.35,476.337,228.35z M251.828,420.966c-0.903,3.766-2.711,8.253-6.281,12.432H192.2c1.966-6.237,2.97-12.704,2.97-19.301c0-6.597-1.004-13.064-2.97-19.301h41.762v0.395C233.962,406.954,241.397,417.015,251.828,420.966z M251.218,193.928c-2.871,7.889-8.953,13.591-15.523,15.08c3.525-11.874,6.325-26.358,8.134-42.415C251.919,171.069,255.243,182.866,251.218,193.928z M46.895,193.928c-4.025-11.062-0.7-22.859,7.39-27.335c1.809,16.057,4.608,30.541,8.134,42.415C55.849,207.519,49.766,201.816,46.895,193.928z M78.108,226.398c-7.352-12.381-13.398-36.316-16.248-64.214c8.535-12.551,15.526-26.094,20.76-40.297c5.073-13.764,8.49-28.062,10.197-42.627c6.36,7.104,13.619,12.752,21.67,16.847c13.296,6.765,25.161,7.356,36.636,7.929c10.446,0.521,21.248,1.059,33.858,6.192c11.358,4.624,21.898,12.131,31.328,22.314c0.926,1,2.302,1.459,3.64,1.22c1.343-0.241,2.47-1.148,2.991-2.408l3.615-11.746c6.194,11.109,9.021,25.323,9.812,41.413c-0.002,0.051-0.011,0.103-0.011,0.153c-2.807,28.331-8.911,52.693-16.353,65.223c-9.904,16.68-37.924,43.141-70.948,43.141S88.013,243.078,78.108,226.398z M167.371,275.126l-0.007,23.497l-18.285,28.759l-18.348-29.259l0.007-22.998c5.888,1.53,12.015,2.414,18.318,2.414C155.358,277.54,161.484,276.656,167.371,275.126z M28.385,438.942c2.9,6.93,4.37,14.25,4.37,21.757c0,6.627-1.149,13.106-3.411,19.301H8.552c4.133-30.546,11.513-57.934,21.963-81.596c1.479,5.088,2.24,10.341,2.24,15.693c0,7.508-1.47,14.828-4.37,21.757C28.077,436.814,28.092,437.846,28.385,438.942z M125.283,304.491l20.385,32.508c0.729,1.163,2.004,1.871,3.376,1.875c0.005,0,0.009,0,0.013,0c1.368,0,2.642-0.699,3.376-1.854l20.628-32.446c16.403,5.706,39.308,17.388,60.901,41.142v41.08H36.032C63.484,333.205,102.449,312.394,125.283,304.491z M62.098,480H37.795c1.567-4.97,2.505-10.089,2.826-15.301h24.731C64.984,469.933,63.903,475.058,62.098,480z M37.795,433.398c1.567-4.97,2.505-10.089,2.826-15.301h24.731c-0.369,5.234-1.45,10.359-3.255,15.301H37.795z M80.814,480H70.539c1.966-6.237,2.97-12.705,2.97-19.301c0-6.597-1.004-13.064-2.97-19.301h10.275c2.263,6.195,3.412,12.674,3.412,19.301C84.227,467.325,83.078,473.805,80.814,480z M80.814,433.398H70.539c1.966-6.237,2.97-12.704,2.97-19.301c0-6.597-1.004-13.064-2.97-19.301h10.275c2.263,6.195,3.412,12.674,3.412,19.301C84.227,420.73,83.078,427.21,80.814,433.398z"/>
  </g>
</svg>
